<svg xmlns="http://www.w3.org/2000/svg" viewBox="0 0 600 300" width="600" height="300">
  <defs>
    <style>
      .box { stroke: #374151; stroke-width: 1.5; rx: 4; }
      .title-box { stroke: #dc2626; stroke-width: 2; fill: #fee2e2; rx: 6; }
      .cell { stroke: #374151; stroke-width: 1; }
      .label { font-family: sans-serif; font-size: 10px; fill: #1f2937; }
      .title { font-family: sans-serif; font-size: 12px; font-weight: bold; fill: #dc2626; }
      .mono { font-family: monospace; font-size: 9px; fill: #1f2937; }
      .code { font-family: monospace; font-size: 10px; fill: #374151; }
      .bad { font-family: sans-serif; font-size: 11px; fill: #dc2626; font-weight: bold; }
      .arrow { stroke: #dc2626; stroke-width: 2; fill: none; stroke-dasharray: 4,2; }
    </style>
  </defs>

  <!-- Title -->
  <rect class="title-box" x="20" y="10" width="560" height="30"/>
  <text class="title" x="300" y="30" text-anchor="middle">PARCOURS COLUMN-MAJOR (INEFFICACE)</text>

  <!-- Code -->
  <text class="code" x="30" y="60">Code: for (j = 0..3)</text>
  <text class="code" x="70" y="75">for (i = 0..3)</text>
  <text class="code" x="90" y="90">acces arr[i][j]</text>

  <!-- Matrix with order -->
  <text class="label" x="30" y="120" font-weight="bold">Ordre d'acces:</text>

  <rect x="30" y="130" width="35" height="25" fill="#fee2e2" class="cell"/>
  <text class="mono" x="47" y="147" text-anchor="middle">1</text>
  <rect x="65" y="130" width="35" height="25" fill="#fef3c7" class="cell"/>
  <text class="mono" x="82" y="147" text-anchor="middle">5</text>
  <rect x="100" y="130" width="35" height="25" fill="#dbeafe" class="cell"/>
  <text class="mono" x="117" y="147" text-anchor="middle">9</text>
  <rect x="135" y="130" width="35" height="25" fill="#dcfce7" class="cell"/>
  <text class="mono" x="152" y="147" text-anchor="middle">13</text>

  <rect x="30" y="155" width="35" height="25" fill="#fee2e2" class="cell"/>
  <text class="mono" x="47" y="172" text-anchor="middle">2</text>
  <rect x="65" y="155" width="35" height="25" fill="#fef3c7" class="cell"/>
  <text class="mono" x="82" y="172" text-anchor="middle">6</text>
  <rect x="100" y="155" width="35" height="25" fill="#dbeafe" class="cell"/>
  <text class="mono" x="117" y="172" text-anchor="middle">10</text>
  <rect x="135" y="155" width="35" height="25" fill="#dcfce7" class="cell"/>
  <text class="mono" x="152" y="172" text-anchor="middle">14</text>

  <rect x="30" y="180" width="35" height="25" fill="#fee2e2" class="cell"/>
  <text class="mono" x="47" y="197" text-anchor="middle">3</text>
  <rect x="65" y="180" width="35" height="25" fill="#fef3c7" class="cell"/>
  <text class="mono" x="82" y="197" text-anchor="middle">7</text>
  <rect x="100" y="180" width="35" height="25" fill="#dbeafe" class="cell"/>
  <text class="mono" x="117" y="197" text-anchor="middle">11</text>
  <rect x="135" y="180" width="35" height="25" fill="#dcfce7" class="cell"/>
  <text class="mono" x="152" y="197" text-anchor="middle">15</text>

  <rect x="30" y="205" width="35" height="25" fill="#fee2e2" class="cell"/>
  <text class="mono" x="47" y="222" text-anchor="middle">4</text>
  <rect x="65" y="205" width="35" height="25" fill="#fef3c7" class="cell"/>
  <text class="mono" x="82" y="222" text-anchor="middle">8</text>
  <rect x="100" y="205" width="35" height="25" fill="#dbeafe" class="cell"/>
  <text class="mono" x="117" y="222" text-anchor="middle">12</text>
  <rect x="135" y="205" width="35" height="25" fill="#dcfce7" class="cell"/>
  <text class="mono" x="152" y="222" text-anchor="middle">16</text>

  <!-- Arrows showing column traversal -->
  <text class="label" x="190" y="165">On descend</text>
  <text class="label" x="190" y="180">les colonnes</text>

  <!-- Memory access pattern -->
  <text class="label" x="280" y="120" font-weight="bold">En memoire:</text>
  <text class="mono" x="280" y="140">[0][1][2][3][4][5][6][7][8][9][10][11]...</text>
  <text class="mono" x="280" y="158"> 1        5        9       13  2   6 ...</text>

  <!-- Jump arrows -->
  <path class="arrow" d="M 285 165 L 285 175 L 340 175 L 340 165"/>
  <path class="arrow" d="M 340 165 L 340 175 L 390 175 L 390 165"/>
  <text class="bad" x="350" y="190">SAUTS de 4 positions</text>

  <!-- Hit rate -->
  <rect x="280" y="210" width="270" height="25" fill="#fee2e2" stroke="#dc2626" stroke-width="2" rx="4"/>
  <text class="bad" x="415" y="227" text-anchor="middle">Hit Rate: ~25%</text>

  <!-- Progress bar -->
  <rect x="280" y="250" width="250" height="15" fill="#fee2e2" stroke="#dc2626"/>
  <rect x="280" y="250" width="62" height="15" fill="#dc2626"/>
  <text class="label" x="405" y="280" text-anchor="middle">Mauvais pour le cache!</text>
</svg>
