<svg xmlns="http://www.w3.org/2000/svg" viewBox="0 0 500 140" width="500" height="140">
  <defs>
    <style>
      .box { fill: #e8f4fc; stroke: #2563eb; stroke-width: 1; }
      .header { fill: #2563eb; }
      .title { font-family: sans-serif; font-size: 12px; font-weight: bold; fill: white; }
      .reg-name { font-family: monospace; font-size: 11px; fill: #1e40af; font-weight: bold; }
      .reg-role { font-family: sans-serif; font-size: 9px; fill: #666; }
      .special { fill: #fef3c7; }
    </style>
  </defs>

  <!-- Header -->
  <rect class="header" x="10" y="10" width="480" height="25" rx="3"/>
  <text class="title" x="150" y="27">Banc de Registres (32 bits × 16)</text>

  <!-- Row 1: R0-R6 -->
  <rect class="box" x="10" y="40" width="68" height="40"/>
  <text class="reg-name" x="30" y="55">R0</text>
  <text class="reg-role" x="26" y="72">Arg0</text>

  <rect class="box" x="78" y="40" width="68" height="40"/>
  <text class="reg-name" x="98" y="55">R1</text>
  <text class="reg-role" x="94" y="72">Arg1</text>

  <rect class="box" x="146" y="40" width="68" height="40"/>
  <text class="reg-name" x="166" y="55">R2</text>
  <text class="reg-role" x="162" y="72">Arg2</text>

  <rect class="box" x="214" y="40" width="68" height="40"/>
  <text class="reg-name" x="234" y="55">R3</text>
  <text class="reg-role" x="230" y="72">Arg3</text>

  <rect class="box" x="282" y="40" width="68" height="40"/>
  <text class="reg-name" x="302" y="55">R4</text>
  <text class="reg-role" x="302" y="72">Var</text>

  <rect class="box" x="350" y="40" width="68" height="40"/>
  <text class="reg-name" x="370" y="55">R5</text>
  <text class="reg-role" x="370" y="72">Var</text>

  <rect class="box" x="418" y="40" width="72" height="40"/>
  <text class="reg-name" x="440" y="55">R6</text>
  <text class="reg-role" x="440" y="72">Var</text>

  <!-- Row 2: R7-R13 -->
  <rect class="box" x="10" y="80" width="68" height="40"/>
  <text class="reg-name" x="30" y="95">R7</text>
  <text class="reg-role" x="30" y="112">Var</text>

  <rect class="box" x="78" y="80" width="68" height="40"/>
  <text class="reg-name" x="98" y="95">R8</text>
  <text class="reg-role" x="98" y="112">Var</text>

  <rect class="box" x="146" y="80" width="68" height="40"/>
  <text class="reg-name" x="166" y="95">R9</text>
  <text class="reg-role" x="166" y="112">Var</text>

  <rect class="box" x="214" y="80" width="68" height="40"/>
  <text class="reg-name" x="230" y="95">R10</text>
  <text class="reg-role" x="234" y="112">Var</text>

  <rect class="box" x="282" y="80" width="68" height="40"/>
  <text class="reg-name" x="298" y="95">R11</text>
  <text class="reg-role" x="302" y="112">Var</text>

  <rect class="box" x="350" y="80" width="68" height="40"/>
  <text class="reg-name" x="366" y="95">R12</text>
  <text class="reg-role" x="365" y="112">Temp</text>

  <rect class="box special" x="418" y="80" width="72" height="40"/>
  <text class="reg-name" x="434" y="95">R13</text>
  <text class="reg-role" x="438" y="112">SP</text>

  <!-- Special registers at bottom (separate) -->
  <rect class="box special" x="10" y="125" width="100" height="25" rx="2"/>
  <text class="reg-name" x="20" y="142">R14 (LR)</text>

  <rect class="box special" x="115" y="125" width="180" height="25" rx="2"/>
  <text class="reg-name" x="125" y="142">R15 (PC)</text>
</svg>
