<svg xmlns="http://www.w3.org/2000/svg" viewBox="0 0 600 300" width="600" height="300">
  <defs>
    <style>
      .box { stroke: #374151; stroke-width: 1.5; rx: 4; }
      .title-box { stroke: #059669; stroke-width: 2; fill: #d1fae5; rx: 6; }
      .cell { stroke: #374151; stroke-width: 1; }
      .label { font-family: sans-serif; font-size: 10px; fill: #1f2937; }
      .title { font-family: sans-serif; font-size: 12px; font-weight: bold; fill: #059669; }
      .mono { font-family: monospace; font-size: 9px; fill: #1f2937; }
      .code { font-family: monospace; font-size: 10px; fill: #374151; }
      .good { font-family: sans-serif; font-size: 11px; fill: #059669; font-weight: bold; }
      .arrow { stroke: #059669; stroke-width: 2; fill: none; }
    </style>
    <marker id="garr" markerWidth="8" markerHeight="6" refX="8" refY="3" orient="auto">
      <polygon points="0 0, 8 3, 0 6" fill="#059669"/>
    </marker>
  </defs>

  <!-- Title -->
  <rect class="title-box" x="20" y="10" width="560" height="30"/>
  <text class="title" x="300" y="30" text-anchor="middle">PARCOURS ROW-MAJOR (EFFICACE)</text>

  <!-- Code -->
  <text class="code" x="30" y="60">Code: for (i = 0..3)</text>
  <text class="code" x="70" y="75">for (j = 0..3)</text>
  <text class="code" x="90" y="90">acces arr[i][j]</text>

  <!-- Matrix with order -->
  <text class="label" x="30" y="120" font-weight="bold">Ordre d'acces:</text>

  <rect x="30" y="130" width="35" height="25" fill="#dcfce7" class="cell"/>
  <text class="mono" x="47" y="147" text-anchor="middle">1</text>
  <rect x="65" y="130" width="35" height="25" fill="#dcfce7" class="cell"/>
  <text class="mono" x="82" y="147" text-anchor="middle">2</text>
  <rect x="100" y="130" width="35" height="25" fill="#dcfce7" class="cell"/>
  <text class="mono" x="117" y="147" text-anchor="middle">3</text>
  <rect x="135" y="130" width="35" height="25" fill="#dcfce7" class="cell"/>
  <text class="mono" x="152" y="147" text-anchor="middle">4</text>
  <text class="mono" x="180" y="147">Ligne 0</text>

  <rect x="30" y="155" width="35" height="25" fill="#dbeafe" class="cell"/>
  <text class="mono" x="47" y="172" text-anchor="middle">5</text>
  <rect x="65" y="155" width="35" height="25" fill="#dbeafe" class="cell"/>
  <text class="mono" x="82" y="172" text-anchor="middle">6</text>
  <rect x="100" y="155" width="35" height="25" fill="#dbeafe" class="cell"/>
  <text class="mono" x="117" y="172" text-anchor="middle">7</text>
  <rect x="135" y="155" width="35" height="25" fill="#dbeafe" class="cell"/>
  <text class="mono" x="152" y="172" text-anchor="middle">8</text>
  <text class="mono" x="180" y="172">Ligne 1</text>

  <rect x="30" y="180" width="35" height="25" fill="#fef3c7" class="cell"/>
  <text class="mono" x="47" y="197" text-anchor="middle">9</text>
  <rect x="65" y="180" width="35" height="25" fill="#fef3c7" class="cell"/>
  <text class="mono" x="82" y="197" text-anchor="middle">10</text>
  <rect x="100" y="180" width="35" height="25" fill="#fef3c7" class="cell"/>
  <text class="mono" x="117" y="197" text-anchor="middle">11</text>
  <rect x="135" y="180" width="35" height="25" fill="#fef3c7" class="cell"/>
  <text class="mono" x="152" y="197" text-anchor="middle">12</text>
  <text class="mono" x="180" y="197">Ligne 2</text>

  <rect x="30" y="205" width="35" height="25" fill="#fce7f3" class="cell"/>
  <text class="mono" x="47" y="222" text-anchor="middle">13</text>
  <rect x="65" y="205" width="35" height="25" fill="#fce7f3" class="cell"/>
  <text class="mono" x="82" y="222" text-anchor="middle">14</text>
  <rect x="100" y="205" width="35" height="25" fill="#fce7f3" class="cell"/>
  <text class="mono" x="117" y="222" text-anchor="middle">15</text>
  <rect x="135" y="205" width="35" height="25" fill="#fce7f3" class="cell"/>
  <text class="mono" x="152" y="222" text-anchor="middle">16</text>
  <text class="mono" x="180" y="222">Ligne 3</text>

  <!-- Memory access pattern -->
  <text class="label" x="280" y="120" font-weight="bold">En memoire:</text>
  <text class="mono" x="280" y="140">[0][1][2][3][4][5][6][7][8][9][10][11]...</text>
  <text class="mono" x="280" y="158">1  2  3  4  5  6  7  8  9 10  11  12 ...</text>

  <!-- Sequential arrow -->
  <line class="arrow" x1="280" y1="168" x2="550" y2="168" marker-end="url(#garr)"/>
  <text class="good" x="350" y="185">Acces SEQUENTIEL</text>

  <!-- Hit rate -->
  <rect x="280" y="210" width="270" height="25" fill="#d1fae5" stroke="#059669" stroke-width="2" rx="4"/>
  <text class="good" x="415" y="227" text-anchor="middle">Hit Rate: ~95%</text>

  <!-- Progress bar -->
  <rect x="280" y="250" width="250" height="15" fill="#d1fae5" stroke="#059669"/>
  <rect x="280" y="250" width="237" height="15" fill="#059669"/>
  <text class="label" x="405" y="280" text-anchor="middle">Excellent pour le cache!</text>
</svg>
